<mxfile host="app.diagrams.net" modified="2024-02-19T12:29:06.841Z" agent="Mozilla/5.0 (Windows NT 10.0; Win64; x64) AppleWebKit/537.36 (KHTML, like Gecko) Chrome/121.0.0.0 Safari/537.36" etag="Y6kOmBW-9YWuI_Rklw_7" version="23.1.5" type="device">
  <diagram name="Page-1" id="gchzMa_R8GkWFFoDueGF">
    <mxGraphModel dx="2352" dy="1050" grid="1" gridSize="10" guides="1" tooltips="1" connect="1" arrows="1" fold="1" page="1" pageScale="1" pageWidth="850" pageHeight="1100" math="0" shadow="0">
      <root>
        <mxCell id="0" />
        <mxCell id="1" parent="0" />
        <mxCell id="0IfDw-ERNObSqTTxe5FA-1" value="&lt;font style=&quot;font-size: 14px;&quot;&gt;start&lt;/font&gt;" style="rounded=1;whiteSpace=wrap;html=1;" vertex="1" parent="1">
          <mxGeometry x="356" y="20" width="140" height="50" as="geometry" />
        </mxCell>
        <mxCell id="0IfDw-ERNObSqTTxe5FA-8" value="" style="edgeStyle=orthogonalEdgeStyle;rounded=0;orthogonalLoop=1;jettySize=auto;html=1;" edge="1" parent="1">
          <mxGeometry relative="1" as="geometry">
            <mxPoint x="425.5" y="290" as="sourcePoint" />
            <mxPoint x="425.5" y="340" as="targetPoint" />
          </mxGeometry>
        </mxCell>
        <mxCell id="0IfDw-ERNObSqTTxe5FA-12" value="" style="edgeStyle=orthogonalEdgeStyle;rounded=0;orthogonalLoop=1;jettySize=auto;html=1;" edge="1" parent="1">
          <mxGeometry relative="1" as="geometry">
            <mxPoint x="425.5" y="400" as="sourcePoint" />
            <mxPoint x="425.5" y="460.17006802721085" as="targetPoint" />
          </mxGeometry>
        </mxCell>
        <mxCell id="0IfDw-ERNObSqTTxe5FA-9" value="" style="edgeStyle=orthogonalEdgeStyle;rounded=0;orthogonalLoop=1;jettySize=auto;html=1;" edge="1" parent="1" source="0IfDw-ERNObSqTTxe5FA-1">
          <mxGeometry relative="1" as="geometry">
            <mxPoint x="425" y="70" as="sourcePoint" />
            <mxPoint x="425.5" y="110" as="targetPoint" />
          </mxGeometry>
        </mxCell>
        <mxCell id="0IfDw-ERNObSqTTxe5FA-13" value="" style="edgeStyle=orthogonalEdgeStyle;rounded=0;orthogonalLoop=1;jettySize=auto;html=1;" edge="1" parent="1" target="0IfDw-ERNObSqTTxe5FA-11">
          <mxGeometry relative="1" as="geometry">
            <mxPoint x="425.5" y="180" as="sourcePoint" />
          </mxGeometry>
        </mxCell>
        <mxCell id="0IfDw-ERNObSqTTxe5FA-15" value="" style="edgeStyle=orthogonalEdgeStyle;rounded=0;orthogonalLoop=1;jettySize=auto;html=1;" edge="1" parent="1">
          <mxGeometry relative="1" as="geometry">
            <mxPoint x="426" y="560" as="sourcePoint" />
            <mxPoint x="426" y="610" as="targetPoint" />
          </mxGeometry>
        </mxCell>
        <mxCell id="0IfDw-ERNObSqTTxe5FA-23" value="Yes" style="edgeLabel;html=1;align=center;verticalAlign=middle;resizable=0;points=[];" vertex="1" connectable="0" parent="0IfDw-ERNObSqTTxe5FA-15">
          <mxGeometry x="-0.2005" y="-1" relative="1" as="geometry">
            <mxPoint as="offset" />
          </mxGeometry>
        </mxCell>
        <mxCell id="0IfDw-ERNObSqTTxe5FA-11" value="array" style="shape=document;whiteSpace=wrap;html=1;boundedLbl=1;" vertex="1" parent="1">
          <mxGeometry x="366" y="220" width="120" height="80" as="geometry" />
        </mxCell>
        <mxCell id="0IfDw-ERNObSqTTxe5FA-18" value="" style="edgeStyle=orthogonalEdgeStyle;rounded=0;orthogonalLoop=1;jettySize=auto;html=1;" edge="1" parent="1" source="0IfDw-ERNObSqTTxe5FA-16" target="0IfDw-ERNObSqTTxe5FA-17">
          <mxGeometry relative="1" as="geometry" />
        </mxCell>
        <mxCell id="0IfDw-ERNObSqTTxe5FA-22" value="Yes" style="edgeLabel;html=1;align=center;verticalAlign=middle;resizable=0;points=[];" vertex="1" connectable="0" parent="0IfDw-ERNObSqTTxe5FA-18">
          <mxGeometry x="-0.1225" relative="1" as="geometry">
            <mxPoint as="offset" />
          </mxGeometry>
        </mxCell>
        <mxCell id="0IfDw-ERNObSqTTxe5FA-28" style="edgeStyle=orthogonalEdgeStyle;rounded=0;orthogonalLoop=1;jettySize=auto;html=1;" edge="1" parent="1" source="0IfDw-ERNObSqTTxe5FA-16">
          <mxGeometry relative="1" as="geometry">
            <mxPoint x="420" y="440" as="targetPoint" />
            <Array as="points">
              <mxPoint x="601" y="650" />
              <mxPoint x="601" y="840" />
              <mxPoint x="170" y="840" />
              <mxPoint x="170" y="440" />
            </Array>
          </mxGeometry>
        </mxCell>
        <mxCell id="0IfDw-ERNObSqTTxe5FA-34" value="No" style="edgeLabel;html=1;align=center;verticalAlign=middle;resizable=0;points=[];" vertex="1" connectable="0" parent="0IfDw-ERNObSqTTxe5FA-28">
          <mxGeometry x="-0.9302" relative="1" as="geometry">
            <mxPoint as="offset" />
          </mxGeometry>
        </mxCell>
        <mxCell id="0IfDw-ERNObSqTTxe5FA-16" value="array[i].Length &amp;lt;= 3&amp;nbsp;" style="rhombus;whiteSpace=wrap;html=1;" vertex="1" parent="1">
          <mxGeometry x="333" y="610" width="184" height="80" as="geometry" />
        </mxCell>
        <mxCell id="0IfDw-ERNObSqTTxe5FA-26" value="" style="edgeStyle=orthogonalEdgeStyle;rounded=0;orthogonalLoop=1;jettySize=auto;html=1;" edge="1" parent="1" source="0IfDw-ERNObSqTTxe5FA-17">
          <mxGeometry relative="1" as="geometry">
            <mxPoint x="426" y="830" as="targetPoint" />
          </mxGeometry>
        </mxCell>
        <mxCell id="0IfDw-ERNObSqTTxe5FA-17" value="count ++" style="whiteSpace=wrap;html=1;" vertex="1" parent="1">
          <mxGeometry x="368.5" y="730" width="115" height="50" as="geometry" />
        </mxCell>
        <mxCell id="0IfDw-ERNObSqTTxe5FA-31" value="&lt;font style=&quot;font-size: 14px;&quot;&gt;array [n]&lt;br&gt;&lt;/font&gt;" style="shape=parallelogram;perimeter=parallelogramPerimeter;whiteSpace=wrap;html=1;fixedSize=1;" vertex="1" parent="1">
          <mxGeometry x="260.5" y="110" width="331" height="70" as="geometry" />
        </mxCell>
        <mxCell id="0IfDw-ERNObSqTTxe5FA-32" value="count = 0" style="shape=parallelogram;perimeter=parallelogramPerimeter;whiteSpace=wrap;html=1;fixedSize=1;" vertex="1" parent="1">
          <mxGeometry x="358.5" y="340" width="134" height="60" as="geometry" />
        </mxCell>
        <mxCell id="0IfDw-ERNObSqTTxe5FA-36" style="edgeStyle=orthogonalEdgeStyle;rounded=0;orthogonalLoop=1;jettySize=auto;html=1;" edge="1" parent="1" source="0IfDw-ERNObSqTTxe5FA-33" target="0IfDw-ERNObSqTTxe5FA-35">
          <mxGeometry relative="1" as="geometry">
            <mxPoint x="720" y="520" as="targetPoint" />
            <Array as="points">
              <mxPoint x="800" y="510" />
              <mxPoint x="800" y="510" />
            </Array>
          </mxGeometry>
        </mxCell>
        <mxCell id="0IfDw-ERNObSqTTxe5FA-37" value="No" style="edgeLabel;html=1;align=center;verticalAlign=middle;resizable=0;points=[];" vertex="1" connectable="0" parent="0IfDw-ERNObSqTTxe5FA-36">
          <mxGeometry x="-0.7931" relative="1" as="geometry">
            <mxPoint as="offset" />
          </mxGeometry>
        </mxCell>
        <mxCell id="0IfDw-ERNObSqTTxe5FA-33" value="i = 0; i &amp;lt; array.Length; i++" style="shape=hexagon;perimeter=hexagonPerimeter2;whiteSpace=wrap;html=1;fixedSize=1;" vertex="1" parent="1">
          <mxGeometry x="286" y="460" width="280" height="100" as="geometry" />
        </mxCell>
        <mxCell id="0IfDw-ERNObSqTTxe5FA-45" value="" style="edgeStyle=orthogonalEdgeStyle;rounded=0;orthogonalLoop=1;jettySize=auto;html=1;" edge="1" parent="1" source="0IfDw-ERNObSqTTxe5FA-35" target="0IfDw-ERNObSqTTxe5FA-38">
          <mxGeometry relative="1" as="geometry" />
        </mxCell>
        <mxCell id="0IfDw-ERNObSqTTxe5FA-35" value="resArray[count]&lt;br&gt;index = 0" style="shape=parallelogram;perimeter=parallelogramPerimeter;whiteSpace=wrap;html=1;fixedSize=1;" vertex="1" parent="1">
          <mxGeometry x="809" y="475" width="216.5" height="70" as="geometry" />
        </mxCell>
        <mxCell id="0IfDw-ERNObSqTTxe5FA-46" value="" style="edgeStyle=orthogonalEdgeStyle;rounded=0;orthogonalLoop=1;jettySize=auto;html=1;" edge="1" parent="1" source="0IfDw-ERNObSqTTxe5FA-38" target="0IfDw-ERNObSqTTxe5FA-42">
          <mxGeometry relative="1" as="geometry" />
        </mxCell>
        <mxCell id="0IfDw-ERNObSqTTxe5FA-47" value="Yes" style="edgeLabel;html=1;align=center;verticalAlign=middle;resizable=0;points=[];" vertex="1" connectable="0" parent="0IfDw-ERNObSqTTxe5FA-46">
          <mxGeometry x="-0.2163" relative="1" as="geometry">
            <mxPoint as="offset" />
          </mxGeometry>
        </mxCell>
        <mxCell id="0IfDw-ERNObSqTTxe5FA-55" value="" style="edgeStyle=orthogonalEdgeStyle;rounded=0;orthogonalLoop=1;jettySize=auto;html=1;" edge="1" parent="1" source="0IfDw-ERNObSqTTxe5FA-38" target="0IfDw-ERNObSqTTxe5FA-54">
          <mxGeometry relative="1" as="geometry" />
        </mxCell>
        <mxCell id="0IfDw-ERNObSqTTxe5FA-38" value="i = 0; i &amp;lt; array.Length; i++" style="shape=hexagon;perimeter=hexagonPerimeter2;whiteSpace=wrap;html=1;fixedSize=1;" vertex="1" parent="1">
          <mxGeometry x="777.25" y="640" width="280" height="100" as="geometry" />
        </mxCell>
        <mxCell id="0IfDw-ERNObSqTTxe5FA-44" value="" style="edgeStyle=orthogonalEdgeStyle;rounded=0;orthogonalLoop=1;jettySize=auto;html=1;" edge="1" parent="1" source="0IfDw-ERNObSqTTxe5FA-42" target="0IfDw-ERNObSqTTxe5FA-43">
          <mxGeometry relative="1" as="geometry" />
        </mxCell>
        <mxCell id="0IfDw-ERNObSqTTxe5FA-48" value="Yes" style="edgeLabel;html=1;align=center;verticalAlign=middle;resizable=0;points=[];" vertex="1" connectable="0" parent="0IfDw-ERNObSqTTxe5FA-44">
          <mxGeometry x="-0.0663" y="1" relative="1" as="geometry">
            <mxPoint as="offset" />
          </mxGeometry>
        </mxCell>
        <mxCell id="0IfDw-ERNObSqTTxe5FA-52" style="edgeStyle=orthogonalEdgeStyle;rounded=0;orthogonalLoop=1;jettySize=auto;html=1;" edge="1" parent="1" source="0IfDw-ERNObSqTTxe5FA-42">
          <mxGeometry relative="1" as="geometry">
            <mxPoint x="1009" y="1020" as="targetPoint" />
            <Array as="points">
              <mxPoint x="1120" y="820" />
              <mxPoint x="1120" y="1020" />
            </Array>
          </mxGeometry>
        </mxCell>
        <mxCell id="0IfDw-ERNObSqTTxe5FA-53" value="No" style="edgeLabel;html=1;align=center;verticalAlign=middle;resizable=0;points=[];" vertex="1" connectable="0" parent="0IfDw-ERNObSqTTxe5FA-52">
          <mxGeometry x="-0.7321" relative="1" as="geometry">
            <mxPoint x="1" as="offset" />
          </mxGeometry>
        </mxCell>
        <mxCell id="0IfDw-ERNObSqTTxe5FA-42" value="array[i].Length &amp;lt;= 3&amp;nbsp;" style="rhombus;whiteSpace=wrap;html=1;" vertex="1" parent="1">
          <mxGeometry x="825.25" y="780" width="184" height="80" as="geometry" />
        </mxCell>
        <mxCell id="0IfDw-ERNObSqTTxe5FA-50" value="" style="edgeStyle=orthogonalEdgeStyle;rounded=0;orthogonalLoop=1;jettySize=auto;html=1;" edge="1" parent="1" source="0IfDw-ERNObSqTTxe5FA-43" target="0IfDw-ERNObSqTTxe5FA-49">
          <mxGeometry relative="1" as="geometry" />
        </mxCell>
        <mxCell id="0IfDw-ERNObSqTTxe5FA-43" value="resArray[index] = array[i]" style="whiteSpace=wrap;html=1;" vertex="1" parent="1">
          <mxGeometry x="811.37" y="900" width="211.75" height="60" as="geometry" />
        </mxCell>
        <mxCell id="0IfDw-ERNObSqTTxe5FA-51" style="edgeStyle=orthogonalEdgeStyle;rounded=0;orthogonalLoop=1;jettySize=auto;html=1;" edge="1" parent="1" source="0IfDw-ERNObSqTTxe5FA-49">
          <mxGeometry relative="1" as="geometry">
            <mxPoint x="909" y="620" as="targetPoint" />
            <Array as="points">
              <mxPoint x="700" y="1020" />
              <mxPoint x="700" y="620" />
            </Array>
          </mxGeometry>
        </mxCell>
        <mxCell id="0IfDw-ERNObSqTTxe5FA-49" value="index ++" style="whiteSpace=wrap;html=1;" vertex="1" parent="1">
          <mxGeometry x="831.37" y="990" width="171.76" height="60" as="geometry" />
        </mxCell>
        <mxCell id="0IfDw-ERNObSqTTxe5FA-57" value="" style="edgeStyle=orthogonalEdgeStyle;rounded=0;orthogonalLoop=1;jettySize=auto;html=1;" edge="1" parent="1" source="0IfDw-ERNObSqTTxe5FA-54" target="0IfDw-ERNObSqTTxe5FA-56">
          <mxGeometry relative="1" as="geometry" />
        </mxCell>
        <mxCell id="0IfDw-ERNObSqTTxe5FA-54" value="resArray" style="shape=document;whiteSpace=wrap;html=1;boundedLbl=1;" vertex="1" parent="1">
          <mxGeometry x="1217.25" y="650" width="120" height="80" as="geometry" />
        </mxCell>
        <mxCell id="0IfDw-ERNObSqTTxe5FA-56" value="end" style="rounded=1;whiteSpace=wrap;html=1;" vertex="1" parent="1">
          <mxGeometry x="1217.25" y="780" width="120" height="60" as="geometry" />
        </mxCell>
      </root>
    </mxGraphModel>
  </diagram>
</mxfile>
